<svg id="Layer_5" enable-background="new 0 0 64 64" height="512" viewBox="0 0 64 64" width="512" xmlns="http://www.w3.org/2000/svg"><path d="m33 1v7.082c-2.387 1.386-4 3.964-4 6.918 0 3.089 1.763 5.77 4.333 7.102l-4.36 1.635c-.135-1.529-1.409-2.737-2.973-2.737h-18c-1.654 0-3 1.346-3 3v16c0 .352.072.686.184 1h-1.184c-1.654 0-3 1.346-3 3v16c0 1.654 1.346 3 3 3h18c1.654 0 3-1.346 3-3v-16c0-.352-.072-.686-.184-1h1.184c1.654 0 3-1.346 3-3v-7.728l1.807-.678-1.941 15.406h2.134v11c0 2.757 2.243 5 5 5 .952 0 1.871-.269 2.663-.768.659.478 1.462.768 2.337.768h22v-62zm20 55.382v-16.566c.314.112.648.184 1 .184 1.654 0 3-1.346 3-3v-10c0-1.654-1.346-3-3-3-.352 0-.686.072-1 .184v-16.566l8-4v56.764zm0-29.382c0-.551.449-1 1-1s1 .449 1 1v10c0 .552-.449 1-1 1s-1-.448-1-1zm-18-24h22.764l-6.764 3.382v20.618 10 20.618l6.764 3.382h-13.32c.344-.591.556-1.268.556-2v-12h2.09l-1.556-18.096c-.233-3.03-2.06-5.609-4.612-6.939.56-.317 1.075-.7 1.541-1.137.667 1.284 1.993 2.172 3.537 2.172 2.206 0 4-1.794 4-4s-1.794-4-4-4c-.346 0-.681.056-1.007.143.001-.048.007-.095.007-.143 0-4.411-3.589-8-8-8-.692 0-1.359.097-2 .263zm11 14c1.103 0 2 .897 2 2s-.897 2-2 2-2-.897-2-2c0-.057.011-.111.018-.166.202-.368.368-.756.51-1.156.384-.427.91-.678 1.472-.678zm-9-8c3.309 0 6 2.691 6 6 0 1.354-.456 2.601-1.216 3.606l-1.815-3.175c-.832-1.457-2.167-2.551-3.758-3.082-.696-.232-1.42-.35-2.154-.35h-2.245c1.039-1.789 2.973-2.999 5.188-2.999zm-6 6c0-.341.035-.674.09-1h2.967c.518 0 1.03.083 1.521.247 1.124.375 2.066 1.147 2.654 2.176l2.052 3.591c-.943.622-2.071.986-3.284.986-3.309 0-6-2.691-6-6zm-4 9v.477l-6 2.25v-3.727h5c.551 0 1 .449 1 1zm-12-1h4v4h-4zm8 21v16c0 .552-.449 1-1 1h-18c-.551 0-1-.448-1-1v-16c0-.552.449-1 1-1h4 1v6h8v-6h5c.551 0 1 .448 1 1zm-12-1h4v4h-4zm16-3c0 .552-.449 1-1 1h-4-14c-.551 0-1-.448-1-1v-16c0-.551.449-1 1-1h5v6h4.559c-.581 1.002-.742 2.238-.304 3.404.583 1.553 2.088 2.596 3.745 2.596.476 0 .945-.084 1.398-.252l4.602-1.726zm-5.3-7.126c-1.014.376-2.197-.172-2.573-1.172-.387-1.032.138-2.187 1.17-2.575l.339-.127h.364v-.136l15.302-5.739c.223-.083.458-.125.696-.125 3.407 0 6.281 2.661 6.543 6.066l1.369 15.934h-13.776l1.789-14.199 5.482-2.056-.702-1.873zm11.3 25.126v-11h4v12c0 .592.137 1.15.369 1.656-.421.217-.885.344-1.369.344-1.654 0-3-1.346-3-3zm6 1v-12h4v12c0 1.103-.897 2-2 2s-2-.897-2-2z"/><path d="m9 57h2v2h-2z"/><path d="m5 57h2v2h-2z"/><path d="m13 57h2v2h-2z"/><path d="m17 37h2v2h-2z"/><path d="m13 37h2v2h-2z"/><path d="m9 37h2v2h-2z"/></svg>