<?xml version="1.0" encoding="iso-8859-1"?>
<!-- Generator: Adobe Illustrator 19.0.0, SVG Export Plug-In . SVG Version: 6.00 Build 0)  -->
<svg version="1.1" id="Layer_1" xmlns="http://www.w3.org/2000/svg" xmlns:xlink="http://www.w3.org/1999/xlink" x="0px" y="0px"
	 viewBox="0 0 512 512" style="enable-background:new 0 0 512 512;" xml:space="preserve">
<circle style="fill:#00BAFF;" cx="256" cy="256" r="256"/>
<path style="fill:#008CC3;" d="M506.933,306.894l-93.914-93.914l-9.301,16.738L256,82L77,115l125.83,127.403L94.927,418.359
	l101.552,86.669C215.58,509.577,235.506,512,256,512C379.958,512,483.331,423.896,506.933,306.894z"/>
<path style="fill:#F1333F;" d="M94.927,418.359h112.184c13.538,0,24.675-10.662,25.264-24.188l11.822-301.913H83.105L94.927,418.359
	z"/>
<path style="fill:#AE283F;" d="M165,92.258v326.101h42.111c13.539,0,24.675-10.662,25.264-24.188l11.822-301.913L165,92.258
	L165,92.258z"/>
<path style="fill:#FFFFFF;" d="M87.702,219.082l2.719,74.987c24.884-7.729,54.575-19.729,84.687-35.239
	c23.95-12.336,45.72-25.443,64.063-38.226l2.8-71.496c-28.313,6.877-64.644,20.84-102.58,40.38
	C120.771,199.079,103.102,209.074,87.702,219.082z"/>
<path style="fill:#E0E0E0;" d="M165,177.028v86.891c3.354-1.654,6.724-3.346,10.108-5.089c23.95-12.336,45.72-25.443,64.063-38.226
	l2.8-71.496C220.113,154.417,193.466,163.966,165,177.028z"/>
<path style="fill:#FFCF35;" d="M447.3,285.332c0-64.185-70.581-116.217-157.647-116.217s-157.648,52.032-157.648,116.217
	c0,0.105,0,0.211,0.001,0.316c0.061,16.726,15.911,30.167,35.134,30.167h245.026c19.223,0,35.073-13.44,35.134-30.167
	C447.3,285.543,447.3,285.438,447.3,285.332z"/>
<path style="fill:#FFB344;" d="M289.667,169.115v146.7h122.499c19.223,0,35.073-13.44,35.134-30.167c0-0.105,0-0.211,0-0.316
	C447.3,221.151,376.727,169.121,289.667,169.115z"/>
<path style="fill:#FFCF35;" d="M429.601,418.359H149.704c-9.775,0-17.699-7.924-17.699-17.699v-12.043
	c0-9.775,7.924-17.699,17.699-17.699h279.897c9.775,0,17.699,7.924,17.699,17.699v12.043
	C447.3,410.435,439.376,418.359,429.601,418.359z"/>
<path style="fill:#FFB344;" d="M429.601,370.919H289.667v47.44h139.934c9.775,0,17.699-7.924,17.699-17.699v-12.043
	C447.3,378.843,439.376,370.919,429.601,370.919z"/>
<path style="fill:#60C344;" d="M435.44,370.919H143.865c-6.55,0-11.86-5.31-11.86-11.86l0,0c0-6.55,5.31-11.86,11.86-11.86H435.44
	c6.55,0,11.86,5.31,11.86,11.86l0,0C447.3,365.609,441.99,370.919,435.44,370.919z"/>
<path style="fill:#47AB4B;" d="M435.44,347.199H289.667v23.72H435.44c6.55,0,11.86-5.31,11.86-11.86
	C447.3,352.508,441.99,347.199,435.44,347.199z"/>
<path style="fill:#AE4E32;" d="M433.658,347.199H145.647c-7.534,0-13.642-6.108-13.642-13.642v-4.099
	c0-7.534,6.108-13.642,13.642-13.642h288.011c7.534,0,13.642,6.108,13.642,13.642v4.099
	C447.3,341.091,441.192,347.199,433.658,347.199z"/>
<path style="fill:#822914;" d="M433.658,315.815H289.667v31.384h143.991c7.534,0,13.642-6.108,13.642-13.642v-4.099
	C447.3,321.923,441.192,315.815,433.658,315.815z"/>
<polygon style="fill:#FFECB3;" points="403.874,315.815 358.258,361.796 312.643,315.815 "/>
<rect x="77" y="82" style="fill:#FFFFFF;" width="179" height="33"/>
<rect x="165" y="82" style="fill:#E0E0E0;" width="91" height="33"/>
<g>
</g>
<g>
</g>
<g>
</g>
<g>
</g>
<g>
</g>
<g>
</g>
<g>
</g>
<g>
</g>
<g>
</g>
<g>
</g>
<g>
</g>
<g>
</g>
<g>
</g>
<g>
</g>
<g>
</g>
</svg>
