<svg height="512pt" viewBox="0 -48 512 512" width="512pt" xmlns="http://www.w3.org/2000/svg"><path d="m448 407v-400h-272v400" fill="#cad8ea"/><path d="m416 407v-368h-208v368" fill="#96b1d6"/><path d="m232.5 63h15v64h-15zm0 0" fill="#fff"/><path d="m232.5 143h15v16h-15zm0 0" fill="#fff"/><path d="m416 407-120-56v-256l120-56zm0 0" fill="#cad8ea"/><path d="m88 183v-32l56 56-56 56v-32h-80v-48zm0 0" fill="#ea5172"/><path d="m312 191h15v64h-15zm0 0"/><path d="m154.105469 207-74.105469-74.105469v43.105469h-80v63h80v42.105469zm-139.105469 17v-33h80v-21.894531l37.894531 37.894531-37.894531 37.894531v-20.894531zm0 0"/><path d="m455 400v-400h-287v400h-56v15h400v-15zm-272-385h257v385h-17v-368h-223v271h15v-256h167.191406l-94.191406 43.222656v265.554688l94.191406 44.222656h-167.191406v-81h-15v81h-17zm225 380.222656-105-49v-246.445312l105-49zm0 0"/></svg>