<?xml version="1.0"?>
<svg xmlns="http://www.w3.org/2000/svg" height="512px" viewBox="0 0 464.00291 464" width="512px" class=""><g><path d="m24 136h352v288h-352zm0 0" fill="#c3c5c7" data-original="#C3C5C7" class="active-path" style="fill:#E3E88C" data-old_color="#E1E669"/><path d="m0 48h400v88h-400zm0 0" fill="#e3584b" data-original="#E3584B" class="" style="fill:#FF6600" data-old_color="#FF5E00"/><path d="m24 0h40v48h-40zm0 0" fill="#d1d4d6" data-original="#D1D4D6" class="" style="fill:#E3E88C" data-old_color="#E4E98C"/><path d="m200 464h-176v-328l88-88 88 88zm0 0" fill="#d1d4d6" data-original="#D1D4D6" class="" style="fill:#E3E88C" data-old_color="#E4E98C"/><path d="m0 248h400v64h-400zm0 0" fill="#e3584b" data-original="#E3584B" class="" style="fill:#FF6600" data-old_color="#FF5E00"/><path d="m0 424h200v40h-200zm0 0" fill="#d1d4d6" data-original="#D1D4D6" class="" style="fill:#E3E88C" data-old_color="#E4E98C"/><path d="m56 168h32v48h-32zm0 0" fill="#a3603e" data-original="#A3603E" class=""/><path d="m88 168h48v48h-48zm0 0" fill="#4398d1" data-original="#4398D1" class=""/><path d="m136 168h32v48h-32zm0 0" fill="#a3603e" data-original="#A3603E" class=""/><path d="m88 168h48v16h-48zm0 0" fill="#3e8cc7" data-original="#3E8CC7" class=""/><path d="m200 424h208v40h-208zm0 0" fill="#d1d4d6" data-original="#D1D4D6" class="" style="fill:#E3E88C" data-old_color="#E4E98C"/><path d="m232 344h32v80h-32zm0 0" fill="#a3603e" data-original="#A3603E" class=""/><path d="m264 344h48v80h-48zm0 0" fill="#4398d1" data-original="#4398D1" class=""/><path d="m312 344h32v80h-32zm0 0" fill="#a3603e" data-original="#A3603E" class=""/><path d="m264 344h48v16h-48zm0 0" fill="#3e8cc7" data-original="#3E8CC7" class=""/><g fill="#c9473a"><path d="m224 80h32v16h-32zm0 0" data-original="#000000" class=""/><path d="m256 96h32v16h-32zm0 0" data-original="#000000" class=""/><path d="m320 80h32v16h-32zm0 0" data-original="#000000" class=""/></g><path d="m128 120c0 8.839844-7.164062 16-16 16s-16-7.160156-16-16c0-8.835938 7.164062-16 16-16s16 7.164062 16 16zm0 0" fill="#4398d1" data-original="#4398D1" class=""/><path d="m64 272h32v16h-32zm0 0" fill="#c9473a" data-original="#C9473A" class=""/><path d="m336 272h32v16h-32zm0 0" fill="#c9473a" data-original="#C9473A" class=""/><path d="m272 272h32v16h-32zm0 0" fill="#c9473a" data-original="#C9473A" class=""/><path d="m232 168h32v48h-32zm0 0" fill="#a3603e" data-original="#A3603E" class=""/><path d="m264 168h48v48h-48zm0 0" fill="#4398d1" data-original="#4398D1" class=""/><path d="m312 168h32v48h-32zm0 0" fill="#a3603e" data-original="#A3603E" class=""/><path d="m264 168h48v16h-48zm0 0" fill="#3e8cc7" data-original="#3E8CC7" class=""/><path d="m56 344h32v48h-32zm0 0" fill="#a3603e" data-original="#A3603E" class=""/><path d="m88 344h48v48h-48zm0 0" fill="#4398d1" data-original="#4398D1" class=""/><path d="m136 344h32v48h-32zm0 0" fill="#a3603e" data-original="#A3603E" class=""/><path d="m88 344h48v16h-48zm0 0" fill="#3e8cc7" data-original="#3E8CC7" class=""/><path d="m143.574219 420.210938c.265625-1.390626.40625-2.796876.425781-4.210938.019531-9.511719-5.605469-18.132812-14.320312-21.953125-8.714844-3.820313-18.863282-2.109375-25.847657 4.355469-.796875-12.578125-11.230469-22.367188-23.832031-22.367188s-23.035156 9.789063-23.832031 22.367188c-6.984375-6.464844-17.132813-8.175782-25.847657-4.355469-8.714843 3.820313-14.339843 12.441406-14.320312 21.953125.019531 1.414062.160156 2.820312.425781 4.210938-10.109375 5.601562-16.394531 16.234374-16.425781 27.789062v16h160v-16c-.03125-11.554688-6.316406-22.1875-16.425781-27.789062zm0 0" fill="#88b337" data-original="#88B337" class="" style="fill:#85E438" data-old_color="#84E238"/><path d="m200 136h176v16h-176zm0 0" fill="#b1b3b5" data-original="#B1B3B5" class="" style="fill:#B1B3B5"/><path d="m200 312h176v16h-176zm0 0" fill="#b1b3b5" data-original="#B1B3B5" class="" style="fill:#B1B3B5"/><path d="m24 312h176v16h-176zm0 0" fill="#c3c5c7" data-original="#C3C5C7" class="active-path" style="fill:#E3E88C" data-old_color="#E1E669"/><path d="m438.6875 282.113281c3.945312-15.019531-1.160156-30.960937-13.089844-40.898437-11.933594-9.933594-28.535156-12.070313-42.589844-5.472656-14.058593 6.597656-23.027343 20.730468-23.007812 36.257812-.007812 3.898438.566406 7.769531 1.703125 11.496094 4.171875 15.070312.3125 31.222656-10.222656 42.777344-22.339844 25.976562-20.261719 64.9375 4.714843 88.386718 24.976563 23.453125 63.988282 23.078125 88.507813-.851562 24.519531-23.929688 25.84375-62.921875 3.007813-88.464844-10.0625-11.984375-13.449219-28.21875-9.023438-43.230469zm0 0" fill="#88b337" data-original="#88B337" class="" style="fill:#85E438" data-old_color="#84E238"/><path d="m392 304h16v160h-16zm0 0" fill="#a3603e" data-original="#A3603E" class=""/><path d="m48 0h16v48h-16zm0 0" fill="#c3c5c7" data-original="#C3C5C7" class="active-path" style="fill:#E3E88C" data-old_color="#E1E669"/></g> </svg>
