<?xml version="1.0" encoding="iso-8859-1"?>
<!-- Generator: Adobe Illustrator 19.0.0, SVG Export Plug-In . SVG Version: 6.00 Build 0)  -->
<svg version="1.1" id="Layer_1" xmlns="http://www.w3.org/2000/svg" xmlns:xlink="http://www.w3.org/1999/xlink" x="0px" y="0px"
	 viewBox="0 0 512 512" style="enable-background:new 0 0 512 512;" xml:space="preserve">
<g>
	<path style="fill:#3E7DC1;" d="M232.2,110.136V70.134h47.602v40.002h111.005C472.191,33.59,295.744,10,256.002,10
		S39.814,33.59,121.197,110.136H232.2z"/>
	<polygon style="fill:#BC9366;" points="232.2,110.136 121.197,110.136 121.197,150.135 390.809,150.135 390.807,110.136 
		279.802,110.136 	"/>
	<rect x="232.202" y="70.13" style="fill:#EFA215;" width="47.602" height="40"/>
	<path style="fill:#3E7DC1;" d="M390.809,150.135H121.193c0,8.932-2.278,19.621,6.063,29.008
		c11.491,12.941,43.154,23.413,128.746,23.413c84.658,0,116.862-10.25,128.748-23.004
		C393.609,170.067,391.205,159.19,390.809,150.135z"/>
	<path style="fill:#E8E8E8;" d="M384.756,179.558c-11.892,12.748-44.096,22.998-128.754,22.998
		c-85.592,0-117.255-10.472-128.746-23.413v32.035c0,44.659,23.047,84.198,57.837,107.304c20.364,13.542,44.76,21.444,70.909,21.444
		s50.543-7.902,70.908-21.444c34.793-23.107,57.84-62.646,57.84-107.304L384.756,179.558z"/>
	<g>
		<path style="fill:#3E7DC1;" d="M256.002,339.926c-26.149,0-50.545-7.902-70.909-21.444l-10.001,27.521l52.396,54.519
			L256.002,339.926z"/>
		<path style="fill:#3E7DC1;" d="M256.002,339.926l28.516,60.596l52.395-54.519l-10.002-27.521
			C306.545,332.024,282.151,339.926,256.002,339.926z"/>
		<path style="fill:#3E7DC1;" d="M284.518,400.522l-28.516-60.596l-28.514,60.596l-52.396-54.519
			c-4.271,1.577-8.686,3.115-13.188,4.649l78.595,151.347h15.503h203.987v-48.11c0-75.836-71.748-88.938-123.077-107.886
			L284.518,400.522z"/>
	</g>
	<path style="fill:#BC9366;" d="M240.499,501.999l-78.595-151.347c-15.035,5.129-31.055,10.246-46.082,16.827l69.859,134.52
		L240.499,501.999L240.499,501.999z"/>
	<path style="fill:#3E7DC1;" d="M185.682,501.999l-69.859-134.52c-34.529,15.121-63.807,37.964-63.807,86.41v48.11L185.682,501.999
		L185.682,501.999z"/>
	<g>
		<path style="fill:#000001;" d="M360.592,343.647c-5.514-1.861-10.784-3.643-15.879-5.458l-5.763-15.854
			c33.851-25.325,55.8-65.726,55.8-111.158v-28.034c7.7-10.497,6.861-21.922,6.288-29.727c-0.088-1.188-0.172-2.357-0.229-3.563
			V114.35c19.135-19.204,25.392-37.637,18.575-54.832c-8.056-20.323-34.468-36.304-78.504-47.499C306.19,3.201,271.114,0,256.002,0
			s-50.188,3.201-84.878,12.021C127.088,23.216,100.676,39.197,92.62,59.52c-6.816,17.196-0.56,35.629,18.577,54.834v35.616
			c-0.001,0.055-0.004,0.109-0.004,0.165c0,1.329-0.063,2.792-0.128,4.34c-0.336,7.863-0.778,18.267,6.19,28.139v28.564
			c0,45.431,21.948,85.832,55.797,111.156l-5.762,15.855c-5.096,1.815-10.367,3.598-15.883,5.458
			c-12.636,4.264-26.072,8.801-39.046,14.457c-0.388,0.143-0.772,0.304-1.148,0.499c-0.006,0.003-0.011,0.007-0.017,0.01
			c-36.595,16.181-69.182,41.527-69.182,95.275v48.11c0,5.523,4.478,10,10,10h133.645c0.01,0,0.02,0.002,0.029,0.002
			c0.011,0,0.022-0.002,0.033-0.002h54.755c0.01,0,0.02,0.002,0.029,0.002c0.011,0,0.022-0.002,0.033-0.002h219.448
			c5.522,0,10-4.477,10-10v-48.11C469.989,380.563,409.331,360.094,360.592,343.647z M325.386,343.565l-38.008,39.55l-16.021-34.042
			c18.033-1.995,35.035-7.454,50.323-15.704L325.386,343.565z M269.802,100.136H242.2V80.134h27.602V100.136z M232.2,120.136h47.602
			h101.007v19.999H131.197v-19.999C131.197,120.136,232.2,120.136,232.2,120.136z M135.181,172.989
			c-3.48-3.631-4.252-7.537-4.262-12.854h250.462c0.111,5.167-0.597,9.005-3.915,12.576c-8.412,9.053-36.314,19.845-121.464,19.845
			C188.273,192.556,147.623,185.973,135.181,172.989z M111.213,66.89c5.401-13.626,28.428-26.229,64.839-35.486
			C208.731,23.096,242.434,20,256.002,20s47.272,3.096,79.95,11.404c36.411,9.257,59.438,21.859,64.839,35.486
			c3.607,9.099-1.115,20.272-14.038,33.246h-96.951V70.134c0-5.523-4.478-10-10-10H232.2c-5.523,0-10,4.477-10,10v30.002h-96.949
			C112.328,87.163,107.606,75.989,111.213,66.89z M137.256,211.178v-13.165c17.871,7.995,51.096,14.543,118.746,14.543
			c67.2,0,100.643-6.455,118.748-14.419v13.041c0,40.846-20.732,76.938-52.223,98.316c-0.78,0.38-1.486,0.859-2.122,1.405
			c-18.564,12.031-40.682,19.027-64.403,19.027c-23.727,0-45.847-6.999-64.413-19.035c-0.63-0.54-1.329-1.013-2.1-1.39
			C157.991,288.125,137.256,252.028,137.256,211.178z M240.647,349.072l-16.019,34.042l-38.01-39.55l3.705-10.197
			C205.61,341.618,222.613,347.077,240.647,349.072z M156.984,362.875l67.055,129.124h-32.281l-62.033-119.451
			C138.613,369.088,147.822,365.967,156.984,362.875z M62.016,453.889c0-38.993,21.295-59.385,49.336-73.321l57.868,111.431H62.016
			V453.889z M449.989,491.999H246.574l-64.606-124.41l38.311,39.862c1.901,1.978,4.512,3.071,7.209,3.071
			c0.539,0,1.082-0.044,1.622-0.132c3.248-0.534,6.025-2.632,7.427-5.61l19.465-41.369l19.468,41.369
			c1.401,2.979,4.179,5.076,7.427,5.61c0.541,0.089,1.083,0.132,1.622,0.132c2.697,0,5.309-1.093,7.209-3.071l47.902-49.845
			c4.724,1.665,9.545,3.296,14.567,4.991c47.094,15.892,95.792,32.324,95.792,91.292V491.999z"/>
		<path style="fill:#000001;" d="M348.762,452h-51.036c-5.522,0-10,4.477-10,10s4.478,10,10,10h51.036c5.522,0,10-4.477,10-10
			C358.762,456.478,354.284,452,348.762,452z"/>
		<path style="fill:#000001;" d="M377.729,452.004h-0.238c-5.523,0-10,4.477-10,10s4.477,10,10,10h0.238c5.522,0,10-4.477,10-10
			S383.251,452.004,377.729,452.004z"/>
		<path style="fill:#000001;" d="M291.317,250.884c5.508,0,10-4.492,10-10s-4.492-10-10-10c-5.507,0-9.999,4.492-9.999,10
			C281.317,246.392,285.81,250.884,291.317,250.884z"/>
		<path style="fill:#000001;" d="M220.691,250.884c5.507,0,9.999-4.492,9.999-10s-4.492-10-9.999-10c-5.508,0-10,4.492-10,10
			S215.184,250.884,220.691,250.884z"/>
	</g>
</g>
<g>
</g>
<g>
</g>
<g>
</g>
<g>
</g>
<g>
</g>
<g>
</g>
<g>
</g>
<g>
</g>
<g>
</g>
<g>
</g>
<g>
</g>
<g>
</g>
<g>
</g>
<g>
</g>
<g>
</g>
</svg>
