<?xml version="1.0" encoding="iso-8859-1"?>
<!-- Generator: Adobe Illustrator 19.0.0, SVG Export Plug-In . SVG Version: 6.00 Build 0)  -->
<svg version="1.1" id="Capa_1" xmlns="http://www.w3.org/2000/svg" xmlns:xlink="http://www.w3.org/1999/xlink" x="0px" y="0px"
	 viewBox="0 0 481.28 481.28" style="enable-background:new 0 0 481.28 481.28;" xml:space="preserve">
<path style="fill:#F3E804;" d="M240.64,471.04h-102.4c-28.16,0-51.2-23.04-51.2-51.2V61.44c0-28.16,23.04-51.2,51.2-51.2h153.6
	l102.4,102.4v204.8h-102.4c-28.16,0-51.2,23.04-51.2,51.2V471.04z"/>
<path style="fill:#F6AC0D;" d="M394.24,112.64h-51.2c-28.16,0-51.2-23.04-51.2-51.2v-51.2L394.24,112.64z"/>
<path d="M404.48,110.592L404.48,110.592c0-1.024-0.512-1.536-1.024-2.56c0,0,0-0.512-0.512-0.512
	c-0.512-1.024-1.024-1.536-1.536-2.048l-102.4-102.4c-0.512-0.512-1.536-1.024-2.048-1.536c0,0-0.512,0-0.512-0.512
	c-1.024-0.512-1.536-0.512-2.56-1.024l0,0c-0.512,0-1.536,0-2.048,0h-153.6C104.448,0,76.8,27.648,76.8,61.44v358.4
	c0,33.792,27.648,61.44,61.44,61.44h102.4c5.632,0,10.24-4.608,10.24-10.24v-102.4c0-22.528,18.432-40.96,40.96-40.96h102.4
	c5.632,0,10.24-4.608,10.24-10.24v-204.8C404.48,112.128,404.48,111.104,404.48,110.592z M369.664,102.4H343.04
	c-22.528,0-40.96-18.432-40.96-40.96V34.816L369.664,102.4z M291.84,307.2c-33.792,0-61.44,27.648-61.44,61.44v92.16h-92.16
	c-22.528,0-40.96-18.432-40.96-40.96V61.44c0-22.528,18.432-40.96,40.96-40.96H281.6v40.96c0,33.792,27.648,61.44,61.44,61.44H384
	V307.2H291.84z"/>
<path d="M394.24,409.6h-40.96v-40.96c0-5.632-4.608-10.24-10.24-10.24c-5.632,0-10.24,4.608-10.24,10.24v40.96h-40.96
	c-5.632,0-10.24,4.608-10.24,10.24s4.608,10.24,10.24,10.24h40.96v40.96c0,5.632,4.608,10.24,10.24,10.24
	c5.632,0,10.24-4.608,10.24-10.24v-40.96h40.96c5.632,0,10.24-4.608,10.24-10.24S399.872,409.6,394.24,409.6z"/>
<path d="M343.04,174.08h-204.8c-5.632,0-10.24-4.608-10.24-10.24s4.608-10.24,10.24-10.24h204.8c5.632,0,10.24,4.608,10.24,10.24
	S348.672,174.08,343.04,174.08z"/>
<path d="M343.04,225.28h-204.8c-5.632,0-10.24-4.608-10.24-10.24s4.608-10.24,10.24-10.24h204.8c5.632,0,10.24,4.608,10.24,10.24
	S348.672,225.28,343.04,225.28z"/>
<path d="M343.04,276.48h-204.8c-5.632,0-10.24-4.608-10.24-10.24S132.608,256,138.24,256h204.8c5.632,0,10.24,4.608,10.24,10.24
	S348.672,276.48,343.04,276.48z"/>
<path d="M240.64,71.68h-102.4c-5.632,0-10.24-4.608-10.24-10.24s4.608-10.24,10.24-10.24h102.4c5.632,0,10.24,4.608,10.24,10.24
	S246.272,71.68,240.64,71.68z"/>
<g>
</g>
<g>
</g>
<g>
</g>
<g>
</g>
<g>
</g>
<g>
</g>
<g>
</g>
<g>
</g>
<g>
</g>
<g>
</g>
<g>
</g>
<g>
</g>
<g>
</g>
<g>
</g>
<g>
</g>
</svg>
